{
  "accessors": [
    {
      "bufferView": 2,
      "componentType": 5126,
      "count": 65532,
      "max": [
        15.799524307250977,
        8.662761688232422,
        0.21613499522209167
      ],
      "min": [
        -16.804662704467773,
        -8.663365364074707,
        -0.2754479944705963
      ],
      "type": "VEC3"
    },
    {
      "bufferView": 2,
      "byteOffset": 786384,
      "componentType": 5126,
      "count": 65532,
      "max": [
        0.9953091144561768,
        0.9814541339874268,
        0.9999996423721313
      ],
      "min": [
        -0.9773104786872864,
        -0.9852213859558105,
        -0.9456291198730469
      ],
      "type": "VEC3"
    },
    {
      "bufferView": 3,
      "componentType": 5126,
      "count": 65532,
      "max": [
        1.0,
        0.9999996423721313,
        0.9945765733718872,
        1.0
      ],
      "min": [
        -0.9996722340583801,
        -0.9999973773956299,
        -0.9988189339637756,
        -1.0
      ],
      "type": "VEC4"
    },
    {
      "bufferView": 1,
      "componentType": 5126,
      "count": 65532,
      "max": [
        0.9728459715843201,
        0.9923530220985413
      ],
      "min": [
        0.0009769999887794256,
        0.0009769999887794256
      ],
      "type": "VEC2"
    },
    {
      "bufferView": 0,
      "componentType": 5125,
      "count": 310815,
      "type": "SCALAR"
    },
    {
      "bufferView": 2,
      "byteOffset": 1572768,
      "componentType": 5126,
      "count": 65532,
      "max": [
        16.854902267456055,
        8.664255142211914,
        0.26290199160575867
      ],
      "min": [
        -16.771284103393555,
        -8.659514427185059,
        -0.26751598715782166
      ],
      "type": "VEC3"
    },
    {
      "bufferView": 2,
      "byteOffset": 2359152,
      "componentType": 5126,
      "count": 65532,
      "max": [
        0.9921847581863403,
        0.9936695098876953,
        0.999999463558197
      ],
      "min": [
        -0.9994136691093445,
        -0.9980708956718445,
        -0.9456291198730469
      ],
      "type": "VEC3"
    },
    {
      "bufferView": 3,
      "byteOffset": 1048512,
      "componentType": 5126,
      "count": 65532,
      "max": [
        0.9999952912330627,
        0.999993622303009,
        0.9862862229347229,
        1.0
      ],
      "min": [
        -0.998936653137207,
        -0.9999978542327881,
        -0.9954841136932373,
        -1.0
      ],
      "type": "VEC4"
    },
    {
      "bufferView": 1,
      "byteOffset": 524256,
      "componentType": 5126,
      "count": 65532,
      "max": [
        0.9990230202674866,
        0.9990230202674866
      ],
      "min": [
        0.0009769999887794256,
        0.0009769999887794256
      ],
      "type": "VEC2"
    },
    {
      "bufferView": 0,
      "byteOffset": 1243260,
      "componentType": 5125,
      "count": 316233,
      "type": "SCALAR"
    },
    {
      "bufferView": 2,
      "byteOffset": 3145536,
      "componentType": 5126,
      "count": 65532,
      "max": [
        16.852102279663086,
        8.66369915008545,
        0.2754479944705963
      ],
      "min": [
        -16.854902267456055,
        -8.664255142211914,
        -0.26751598715782166
      ],
      "type": "VEC3"
    },
    {
      "bufferView": 2,
      "byteOffset": 3931920,
      "componentType": 5126,
      "count": 65532,
      "max": [
        0.9953091144561768,
        0.9907686710357666,
        0.9999996423721313
      ],
      "min": [
        -0.9889425039291382,
        -0.9980708956718445,
        -0.9384752511978149
      ],
      "type": "VEC3"
    },
    {
      "bufferView": 3,
      "byteOffset": 2097024,
      "componentType": 5126,
      "count": 65532,
      "max": [
        0.9999978542327881,
        0.9999926686286926,
        0.9945765733718872,
        1.0
      ],
      "min": [
        -0.9974051713943481,
        -0.9999973773956299,
        -0.993888258934021,
        -1.0
      ],
      "type": "VEC4"
    },
    {
      "bufferView": 1,
      "byteOffset": 1048512,
      "componentType": 5126,
      "count": 65532,
      "max": [
        0.9980430006980896,
        0.9960870146751404
      ],
      "min": [
        0.0009769999887794256,
        0.0009769999887794256
      ],
      "type": "VEC2"
    },
    {
      "bufferView": 0,
      "byteOffset": 2508192,
      "componentType": 5125,
      "count": 247122,
      "type": "SCALAR"
    },
    {
      "bufferView": 2,
      "byteOffset": 4718304,
      "componentType": 5126,
      "count": 6814,
      "max": [
        16.644243240356445,
        8.657679557800293,
        0.25032898783683777
      ],
      "min": [
        -16.762304306030273,
        -8.660951614379883,
        -0.2506299912929535
      ],
      "type": "VEC3"
    },
    {
      "bufferView": 2,
      "byteOffset": 4800072,
      "componentType": 5126,
      "count": 6814,
      "max": [
        0.9702067375183105,
        0.8552578687667847,
        0.999997615814209
      ],
      "min": [
        -0.9138667583465576,
        -0.9487302303314209,
        0.21097595989704132
      ],
      "type": "VEC3"
    },
    {
      "bufferView": 3,
      "byteOffset": 3145536,
      "componentType": 5126,
      "count": 6814,
      "max": [
        0.9999999403953552,
        0.9999197721481323,
        0.9426754713058472,
        1.0
      ],
      "min": [
        -0.9471177458763123,
        -0.9999868869781494,
        -0.8886077404022217,
        1.0
      ],
      "type": "VEC4"
    },
    {
      "bufferView": 1,
      "byteOffset": 1572768,
      "componentType": 5126,
      "count": 6814,
      "max": [
        0.9949619770050049,
        0.9944869875907898
      ],
      "min": [
        0.0009769999887794256,
        0.0009769999887794256
      ],
      "type": "VEC2"
    },
    {
      "bufferView": 0,
      "byteOffset": 3496680,
      "componentType": 5125,
      "count": 9813,
      "type": "SCALAR"
    }
  ],
  "asset": {
    "extras": {
      "author": "Andrea Spognetta (Spogna) (https://sketchfab.com/spogna)",
      "license": "CC-BY-NC-4.0 (http://creativecommons.org/licenses/by-nc/4.0/)",
      "source": "https://sketchfab.com/3d-models/ground-03-country-road-b62c28638b88403c97a9bd1389df1588",
      "title": "Ground 03 - Country Road"
    },
    "generator": "Sketchfab-12.67.0",
    "version": "2.0"
  },
  "bufferViews": [
    {
      "buffer": 0,
      "byteLength": 3535932,
      "name": "floatBufferViews",
      "target": 34963
    },
    {
      "buffer": 0,
      "byteLength": 1627280,
      "byteOffset": 3535932,
      "byteStride": 8,
      "name": "floatBufferViews",
      "target": 34962
    },
    {
      "buffer": 0,
      "byteLength": 4881840,
      "byteOffset": 5163212,
      "byteStride": 12,
      "name": "floatBufferViews",
      "target": 34962
    },
    {
      "buffer": 0,
      "byteLength": 3254560,
      "byteOffset": 10045052,
      "byteStride": 16,
      "name": "floatBufferViews",
      "target": 34962
    }
  ],
  "buffers": [
    {
      "byteLength": 13299612,
      "uri": "scene.bin"
    }
  ],
  "extensionsRequired": [
    "KHR_materials_pbrSpecularGlossiness"
  ],
  "extensionsUsed": [
    "KHR_materials_pbrSpecularGlossiness"
  ],
  "images": [
    {
      "uri": "textures/material_0_diffuse.jpeg"
    },
    {
      "uri": "textures/material_0_normal.jpeg"
    },
    {
      "uri": "textures/material_0_occlusion.png"
    }
  ],
  "materials": [
    {
      "doubleSided": true,
      "extensions": {
        "KHR_materials_pbrSpecularGlossiness": {
          "diffuseFactor": [
            1.0,
            1.0,
            1.0,
            1.0
          ],
          "diffuseTexture": {
            "index": 0
          },
          "glossinessFactor": 1.0,
          "specularFactor": [
            0.0,
            0.0,
            0.0
          ]
        }
      },
      "name": "material_0",
      "normalTexture": {
        "index": 1
      },
      "occlusionTexture": {
        "index": 2
      }
    }
  ],
  "meshes": [
    {
      "name": "Object_0",
      "primitives": [
        {
          "attributes": {
            "NORMAL": 1,
            "POSITION": 0,
            "TANGENT": 2,
            "TEXCOORD_0": 3
          },
          "indices": 4,
          "material": 0,
          "mode": 4
        }
      ]
    },
    {
      "name": "Object_1",
      "primitives": [
        {
          "attributes": {
            "NORMAL": 6,
            "POSITION": 5,
            "TANGENT": 7,
            "TEXCOORD_0": 8
          },
          "indices": 9,
          "material": 0,
          "mode": 4
        }
      ]
    },
    {
      "name": "Object_2",
      "primitives": [
        {
          "attributes": {
            "NORMAL": 11,
            "POSITION": 10,
            "TANGENT": 12,
            "TEXCOORD_0": 13
          },
          "indices": 14,
          "material": 0,
          "mode": 4
        }
      ]
    },
    {
      "name": "Object_3",
      "primitives": [
        {
          "attributes": {
            "NORMAL": 16,
            "POSITION": 15,
            "TANGENT": 17,
            "TEXCOORD_0": 18
          },
          "indices": 19,
          "material": 0,
          "mode": 4
        }
      ]
    }
  ],
  "nodes": [
    {
      "children": [
        1
      ],
      "matrix": [
        1.0,
        0.0,
        0.0,
        0.0,
        0.0,
        2.220446049250313e-16,
        -1.0,
        0.0,
        0.0,
        1.0,
        2.220446049250313e-16,
        0.0,
        0.0,
        0.0,
        0.0,
        1.0
      ],
      "name": "Sketchfab_model"
    },
    {
      "children": [
        2,
        3,
        4,
        5
      ],
      "name": "terreno02.obj.cleaner.materialmerger.gles"
    },
    {
      "mesh": 0,
      "name": "Object_2"
    },
    {
      "mesh": 1,
      "name": "Object_3"
    },
    {
      "mesh": 2,
      "name": "Object_4"
    },
    {
      "mesh": 3,
      "name": "Object_5"
    }
  ],
  "samplers": [
    {
      "magFilter": 9729,
      "minFilter": 9987,
      "wrapS": 10497,
      "wrapT": 10497
    }
  ],
  "scene": 0,
  "scenes": [
    {
      "name": "Sketchfab_Scene",
      "nodes": [
        0
      ]
    }
  ],
  "textures": [
    {
      "sampler": 0,
      "source": 0
    },
    {
      "sampler": 0,
      "source": 1
    },
    {
      "sampler": 0,
      "source": 2
    }
  ]
}
