{
  "accessors": [
    {
      "bufferView": 2,
      "componentType": 5126,
      "count": 65532,
      "max": [
        21.431989669799805,
        0.2070222645998001,
        8.48417854309082
      ],
      "min": [
        -16.830657958984375,
        -0.23103131353855133,
        -15.684231758117676
      ],
      "type": "VEC3"
    },
    {
      "bufferView": 2,
      "byteOffset": 786384,
      "componentType": 5126,
      "count": 65532,
      "max": [
        0.9993316531181335,
        0.9583666920661926,
        0.942858099937439
      ],
      "min": [
        -0.9958435297012329,
        -1.0,
        -0.9999709129333496
      ],
      "type": "VEC3"
    },
    {
      "bufferView": 1,
      "componentType": 5126,
      "count": 65532,
      "max": [
        0.9998180270195007,
        0.8646240234375
      ],
      "min": [
        0.00012199999764561653,
        0.00012599999899975955
      ],
      "type": "VEC2"
    },
    {
      "bufferView": 0,
      "componentType": 5125,
      "count": 336147,
      "type": "SCALAR"
    },
    {
      "bufferView": 2,
      "byteOffset": 1572768,
      "componentType": 5126,
      "count": 61076,
      "max": [
        21.417293548583984,
        0.2315010279417038,
        8.491701126098633
      ],
      "min": [
        -16.83492660522461,
        -0.32904043793678284,
        -15.667259216308594
      ],
      "type": "VEC3"
    },
    {
      "bufferView": 2,
      "byteOffset": 2305680,
      "componentType": 5126,
      "count": 61076,
      "max": [
        0.9998288750648499,
        0.9814221858978271,
        0.9803431034088135
      ],
      "min": [
        -0.9998630881309509,
        -1.0,
        -0.9999834895133972
      ],
      "type": "VEC3"
    },
    {
      "bufferView": 1,
      "byteOffset": 524256,
      "componentType": 5126,
      "count": 61076,
      "max": [
        0.9998549818992615,
        0.8611059784889221
      ],
      "min": [
        0.00012199999764561653,
        0.0001250000059371814
      ],
      "type": "VEC2"
    },
    {
      "bufferView": 0,
      "byteOffset": 1344588,
      "componentType": 5125,
      "count": 263781,
      "type": "SCALAR"
    }
  ],
  "asset": {
    "extras": {
      "author": "Game industry veteran (https://sketchfab.com/zhengzhangxun)",
      "license": "CC-BY-4.0 (http://creativecommons.org/licenses/by/4.0/)",
      "source": "https://sketchfab.com/3d-models/stone-ground-01-a-63c64a9f582843d1bdfdce756326ce0f",
      "title": "Stone Ground 01 A"
    },
    "generator": "Sketchfab-12.66.0",
    "version": "2.0"
  },
  "bufferViews": [
    {
      "buffer": 0,
      "byteLength": 2399712,
      "name": "floatBufferViews",
      "target": 34963
    },
    {
      "buffer": 0,
      "byteLength": 1012864,
      "byteOffset": 2399712,
      "byteStride": 8,
      "name": "floatBufferViews",
      "target": 34962
    },
    {
      "buffer": 0,
      "byteLength": 3038592,
      "byteOffset": 3412576,
      "byteStride": 12,
      "name": "floatBufferViews",
      "target": 34962
    }
  ],
  "buffers": [
    {
      "byteLength": 6451168,
      "uri": "scene.bin"
    }
  ],
  "extensionsUsed": [
    "KHR_materials_unlit"
  ],
  "images": [
    {
      "uri": "textures/01_Model_2_20wan_u1_v1_baseColor.jpeg"
    }
  ],
  "materials": [
    {
      "doubleSided": true,
      "extensions": {
        "KHR_materials_unlit": {}
      },
      "name": "01_Model_2_20wan_u1_v1",
      "pbrMetallicRoughness": {
        "baseColorTexture": {
          "index": 0
        },
        "metallicFactor": 0.0
      }
    }
  ],
  "meshes": [
    {
      "name": "Object_0",
      "primitives": [
        {
          "attributes": {
            "NORMAL": 1,
            "POSITION": 0,
            "TEXCOORD_0": 2
          },
          "indices": 3,
          "material": 0,
          "mode": 4
        }
      ]
    },
    {
      "name": "Object_1",
      "primitives": [
        {
          "attributes": {
            "NORMAL": 5,
            "POSITION": 4,
            "TEXCOORD_0": 6
          },
          "indices": 7,
          "material": 0,
          "mode": 4
        }
      ]
    }
  ],
  "nodes": [
    {
      "children": [
        1
      ],
      "matrix": [
        -2.220446049250313e-16,
        1.1102230246251565e-16,
        -1.0,
        0.0,
        -1.1102230246251565e-16,
        -1.0,
        0.0,
        0.0,
        -1.0,
        -2.465190328815662e-32,
        1.1102230246251565e-16,
        0.0,
        -1.2976703643798828,
        -3.645011186599732,
        2.3473408222198477,
        1.0
      ],
      "name": "Sketchfab_model"
    },
    {
      "children": [
        2,
        3
      ],
      "name": "01_Model_2_20wan.obj.cleaner.materialmerger.gles"
    },
    {
      "mesh": 0,
      "name": "Object_2"
    },
    {
      "mesh": 1,
      "name": "Object_3"
    }
  ],
  "samplers": [
    {
      "magFilter": 9729,
      "minFilter": 9987,
      "wrapS": 10497,
      "wrapT": 10497
    }
  ],
  "scene": 0,
  "scenes": [
    {
      "name": "Sketchfab_Scene",
      "nodes": [
        0
      ]
    }
  ],
  "textures": [
    {
      "sampler": 0,
      "source": 0
    }
  ]
}
