{
  "accessors": [
    {
      "bufferView": 2,
      "componentType": 5126,
      "count": 65532,
      "max": [
        4.331409931182861,
        5.426249980926514,
        2.0851099491119385
      ],
      "min": [
        -4.331409931182861,
        -5.426249980926514,
        1.4022300243377686
      ],
      "type": "VEC3"
    },
    {
      "bufferView": 2,
      "byteOffset": 786384,
      "componentType": 5126,
      "count": 65532,
      "max": [
        0.9999967217445374,
        0.9998762011528015,
        0.9995529651641846
      ],
      "min": [
        -0.9999967217445374,
        -0.9998762011528015,
        -0.9997901320457458
      ],
      "type": "VEC3"
    },
    {
      "bufferView": 1,
      "componentType": 5126,
      "count": 65532,
      "max": [
        1.0041699409484863,
        1.0008800029754639
      ],
      "min": [
        0.0,
        -0.3752000033855438
      ],
      "type": "VEC2"
    },
    {
      "bufferView": 0,
      "componentType": 5125,
      "count": 294780,
      "type": "SCALAR"
    },
    {
      "bufferView": 2,
      "byteOffset": 1572768,
      "componentType": 5126,
      "count": 30448,
      "max": [
        4.331409931182861,
        5.426249980926514,
        2.0851099491119385
      ],
      "min": [
        -4.331409931182861,
        -5.426249980926514,
        1.4022300243377686
      ],
      "type": "VEC3"
    },
    {
      "bufferView": 2,
      "byteOffset": 1938144,
      "componentType": 5126,
      "count": 30448,
      "max": [
        0.9999967217445374,
        0.9998762011528015,
        0.9995529651641846
      ],
      "min": [
        -0.9999967217445374,
        -0.9998762011528015,
        -0.9997901320457458
      ],
      "type": "VEC3"
    },
    {
      "bufferView": 1,
      "byteOffset": 524256,
      "componentType": 5126,
      "count": 30448,
      "max": [
        1.0041699409484863,
        1.0008800029754639
      ],
      "min": [
        0.0,
        -0.3752000033855438
      ],
      "type": "VEC2"
    },
    {
      "bufferView": 0,
      "byteOffset": 1179120,
      "componentType": 5125,
      "count": 121428,
      "type": "SCALAR"
    },
    {
      "bufferView": 2,
      "byteOffset": 2303520,
      "componentType": 5126,
      "count": 1466,
      "max": [
        3.986180067062378,
        5.017210006713867,
        2.0
      ],
      "min": [
        -3.986180067062378,
        -5.017210006713867,
        1.9375
      ],
      "type": "VEC3"
    },
    {
      "bufferView": 2,
      "byteOffset": 2321112,
      "componentType": 5126,
      "count": 1466,
      "max": [
        1.0,
        1.0,
        1.0
      ],
      "min": [
        -1.0,
        -1.0,
        -1.0
      ],
      "type": "VEC3"
    },
    {
      "bufferView": 1,
      "byteOffset": 767840,
      "componentType": 5126,
      "count": 1466,
      "max": [
        1.0,
        1.0
      ],
      "min": [
        0.0,
        0.0
      ],
      "type": "VEC2"
    },
    {
      "bufferView": 0,
      "byteOffset": 1664832,
      "componentType": 5125,
      "count": 7008,
      "type": "SCALAR"
    }
  ],
  "asset": {
    "extras": {
      "author": "Kremit (https://sketchfab.com/Kremit)",
      "license": "CC-BY-4.0 (http://creativecommons.org/licenses/by/4.0/)",
      "source": "https://sketchfab.com/3d-models/aladdins-magic-carpet-2c363d45fb824fbcab624e2ad66eed02",
      "title": "Aladdin's Magic Carpet"
    },
    "generator": "Sketchfab-12.66.0",
    "version": "2.0"
  },
  "bufferViews": [
    {
      "buffer": 0,
      "byteLength": 1692864,
      "name": "floatBufferViews",
      "target": 34963
    },
    {
      "buffer": 0,
      "byteLength": 779568,
      "byteOffset": 1692864,
      "byteStride": 8,
      "name": "floatBufferViews",
      "target": 34962
    },
    {
      "buffer": 0,
      "byteLength": 2338704,
      "byteOffset": 2472432,
      "byteStride": 12,
      "name": "floatBufferViews",
      "target": 34962
    }
  ],
  "buffers": [
    {
      "byteLength": 4811136,
      "uri": "scene.bin"
    }
  ],
  "images": [
    {
      "uri": "textures/CARPET_baseColor.jpeg"
    },
    {
      "uri": "textures/TASSELS_baseColor.jpeg"
    }
  ],
  "materials": [
    {
      "doubleSided": true,
      "name": "CARPET",
      "pbrMetallicRoughness": {
        "baseColorTexture": {
          "index": 0
        },
        "metallicFactor": 0.0,
        "roughnessFactor": 0.6
      }
    },
    {
      "doubleSided": true,
      "name": "TASSELS",
      "pbrMetallicRoughness": {
        "baseColorTexture": {
          "index": 1
        },
        "metallicFactor": 0.0,
        "roughnessFactor": 0.6
      }
    }
  ],
  "meshes": [
    {
      "name": "TASSELS_0",
      "primitives": [
        {
          "attributes": {
            "NORMAL": 1,
            "POSITION": 0,
            "TEXCOORD_0": 2
          },
          "indices": 3,
          "material": 1,
          "mode": 4
        }
      ]
    },
    {
      "name": "TASSELS_0",
      "primitives": [
        {
          "attributes": {
            "NORMAL": 5,
            "POSITION": 4,
            "TEXCOORD_0": 6
          },
          "indices": 7,
          "material": 1,
          "mode": 4
        }
      ]
    },
    {
      "name": "CARPET_0",
      "primitives": [
        {
          "attributes": {
            "NORMAL": 9,
            "POSITION": 8,
            "TEXCOORD_0": 10
          },
          "indices": 11,
          "material": 0,
          "mode": 4
        }
      ]
    }
  ],
  "nodes": [
    {
      "children": [
        1
      ],
      "matrix": [
        1.0,
        0.0,
        0.0,
        0.0,
        0.0,
        2.220446049250313e-16,
        -1.0,
        0.0,
        0.0,
        1.0,
        2.220446049250313e-16,
        0.0,
        0.0,
        0.0,
        0.0,
        1.0
      ],
      "name": "Sketchfab_model"
    },
    {
      "children": [
        2,
        5
      ],
      "name": "Root"
    },
    {
      "children": [
        3,
        4
      ],
      "matrix": [
        1.0,
        0.0,
        0.0,
        0.0,
        0.0,
        1.0,
        0.0,
        0.0,
        0.0,
        0.0,
        1.0,
        0.0,
        0.0,
        0.0,
        -1.9625,
        1.0
      ],
      "name": "TASSELS"
    },
    {
      "mesh": 0,
      "name": "TASSELS_0"
    },
    {
      "mesh": 1,
      "name": "TASSELS_0"
    },
    {
      "children": [
        6
      ],
      "matrix": [
        1.0,
        0.0,
        0.0,
        0.0,
        0.0,
        1.0,
        0.0,
        0.0,
        0.0,
        0.0,
        1.0,
        0.0,
        0.0,
        0.0,
        -1.9625,
        1.0
      ],
      "name": "CARPET"
    },
    {
      "mesh": 2,
      "name": "CARPET_0"
    }
  ],
  "samplers": [
    {
      "magFilter": 9729,
      "minFilter": 9987,
      "wrapS": 10497,
      "wrapT": 10497
    }
  ],
  "scene": 0,
  "scenes": [
    {
      "name": "Sketchfab_Scene",
      "nodes": [
        0
      ]
    }
  ],
  "textures": [
    {
      "sampler": 0,
      "source": 0
    },
    {
      "sampler": 0,
      "source": 1
    }
  ]
}
